<svg width="70" height="70" viewBox="0 0 70 70" fill="none" xmlns="http://www.w3.org/2000/svg">
<circle cx="35" cy="35" r="35" fill="#F2F2F2"/>
<path d="M49.1211 33.5352C49.6065 33.5352 50 33.1416 50 32.6562C50 32.1709 49.6065 31.7773 49.1211 31.7773H45.2539V28.8477H49.1211C49.6065 28.8477 50 28.4541 50 27.9688C50 27.4834 49.6065 27.0898 49.1211 27.0898H45.2539V26.5039C45.2539 25.5346 44.4654 24.7461 43.4961 24.7461H42.9102V20.8789C42.9102 20.3935 42.5166 20 42.0312 20C41.5459 20 41.1523 20.3935 41.1523 20.8789V24.7461H38.2227V20.8789C38.2227 20.3935 37.8291 20 37.3438 20C36.8584 20 36.4648 20.3935 36.4648 20.8789V24.7461H33.5352V20.8789C33.5352 20.3935 33.1416 20 32.6562 20C32.1709 20 31.7773 20.3935 31.7773 20.8789V24.7461H28.8477V20.8789C28.8477 20.3935 28.4541 20 27.9688 20C27.4834 20 27.0898 20.3935 27.0898 20.8789V24.7461H26.5039C25.5346 24.7461 24.7461 25.5346 24.7461 26.5039V27.0898H20.8789C20.3935 27.0898 20 27.4834 20 27.9688C20 28.4541 20.3935 28.8477 20.8789 28.8477H24.7461V31.7773H20.8789C20.3935 31.7773 20 32.1709 20 32.6562C20 33.1416 20.3935 33.5352 20.8789 33.5352H24.7461V36.4648H20.8789C20.3935 36.4648 20 36.8584 20 37.3438C20 37.8291 20.3935 38.2227 20.8789 38.2227H24.7461V41.1523H20.8789C20.3935 41.1523 20 41.5459 20 42.0312C20 42.5166 20.3935 42.9102 20.8789 42.9102H24.7461V43.4961C24.7461 44.4654 25.5346 45.2539 26.5039 45.2539H27.0898V49.1211C27.0898 49.6065 27.4834 50 27.9688 50C28.4541 50 28.8477 49.6065 28.8477 49.1211V45.2539H31.7773V49.1211C31.7773 49.6065 32.1709 50 32.6562 50C33.1416 50 33.5352 49.6065 33.5352 49.1211V45.2539H36.4648V49.1211C36.4648 49.6065 36.8584 50 37.3438 50C37.8291 50 38.2227 49.6065 38.2227 49.1211V45.2539H41.1523V49.1211C41.1523 49.6065 41.5459 50 42.0312 50C42.5166 50 42.9102 49.6065 42.9102 49.1211V45.2539H43.4961C44.4654 45.2539 45.2539 44.4654 45.2539 43.4961V42.9102H49.1211C49.6065 42.9102 50 42.5166 50 42.0312C50 41.5459 49.6065 41.1523 49.1211 41.1523H45.2539V38.2227H49.1211C49.6065 38.2227 50 37.8291 50 37.3438C50 36.8584 49.6065 36.4648 49.1211 36.4648H45.2539V33.5352H49.1211ZM43.4961 43.4961H26.5039V26.5039H43.4961C43.4973 43.9683 43.502 43.4961 43.4961 43.4961Z" fill="black"/>
<path d="M38.5511 29.6911C38.3863 29.5262 38.1628 29.4336 37.9297 29.4336H32.0703C31.8372 29.4336 31.6137 29.5262 31.4489 29.6911L29.6911 31.4489C29.5262 31.6137 29.4336 31.8372 29.4336 32.0703V37.9297C29.4336 38.1628 29.5262 38.3863 29.6911 38.5511L31.4489 40.3089C31.6137 40.4738 31.8372 40.5664 32.0703 40.5664H37.9297C38.1628 40.5664 38.3863 40.4738 38.5511 40.3089L40.3089 38.5511C40.4738 38.3863 40.5664 38.1628 40.5664 37.9297V32.0703C40.5664 31.8372 40.4738 31.6137 40.3089 31.4489L38.5511 29.6911ZM38.8086 37.5656L37.5656 38.8086H32.4344L31.1914 37.5656V32.4344L32.4344 31.1914H37.5656L38.8086 32.4344V37.5656Z" fill="black"/>
</svg>
