<svg width="70" height="70" viewBox="0 0 70 70" fill="none" xmlns="http://www.w3.org/2000/svg">
<circle cx="35" cy="35" r="35" fill="#F2F2F2"/>
<path d="M33.8045 45.387H31.4473C31.2775 45.387 31.1393 45.2488 31.1393 45.079V24.921C31.1393 24.7512 31.2775 24.613 31.4473 24.613H33.799C34.0348 24.613 34.226 24.4219 34.226 24.1861C34.226 23.9503 34.0348 23.7591 33.799 23.7591H31.4473C30.8067 23.7591 30.2854 24.2803 30.2854 24.9209V45.0789C30.2854 45.7195 30.8067 46.2407 31.4473 46.2407H33.8045C34.0402 46.2407 34.2314 46.0496 34.2314 45.8138C34.2315 45.5779 34.0404 45.387 33.8045 45.387Z" fill="black"/>
<path d="M38.5526 23.7591H35.9749C35.739 23.7591 35.5479 23.9503 35.5479 24.1861C35.5479 24.4219 35.739 24.6131 35.9749 24.6131H38.5526C38.7224 24.6131 38.8606 24.7512 38.8606 24.9211V45.079C38.8606 45.2488 38.7224 45.387 38.5526 45.387H35.98C35.7442 45.387 35.5531 45.5781 35.5531 45.8139C35.5531 46.0498 35.7443 46.2409 35.98 46.2409H38.5526C39.1933 46.2409 39.7145 45.7197 39.7145 45.0791V24.921C39.7145 24.2803 39.1932 23.7591 38.5526 23.7591Z" fill="black"/>
<path d="M46.1929 31.5871C46.8934 31.5871 47.4634 31.0172 47.4634 30.3167V29.1858C47.4634 28.4853 46.8934 27.9154 46.1929 27.9154H43.4736V26.3384H46.1928C46.8934 26.3384 47.4633 25.7685 47.4633 25.068V23.9371C47.4633 23.2366 46.8934 22.6667 46.1928 22.6667H43.4735V21.6557C43.4736 20.7427 42.7308 20 41.8179 20H28.1821C27.2692 20 26.5264 20.7427 26.5264 21.6557V22.6666H23.8071C23.1066 22.6666 22.5367 23.2365 22.5367 23.937V25.0679C22.5367 25.7684 23.1066 26.3384 23.8071 26.3384H26.5264V27.9153H23.8071C23.1066 27.9153 22.5367 28.4853 22.5367 29.1857V30.3167C22.5367 31.0171 23.1066 31.5871 23.8071 31.5871H26.5264V33.1641H23.8071C23.1066 33.1641 22.5367 33.734 22.5367 34.4345V35.5654C22.5367 36.2659 23.1066 36.8359 23.8071 36.8359H26.5264V38.4129H23.8071C23.1066 38.4129 22.5367 38.9828 22.5367 39.6833V40.8142C22.5367 41.5147 23.1066 42.0846 23.8071 42.0846H26.5264V43.6616H23.8071C23.1066 43.6616 22.5367 44.2315 22.5367 44.932V46.0629C22.5367 46.7634 23.1066 47.3333 23.8071 47.3333H26.5264V48.3443C26.5264 49.2572 27.2691 50 28.1821 50H41.8179C42.7308 50 43.4735 49.2573 43.4735 48.3443V47.3334H46.1928C46.8934 47.3334 47.4633 46.7635 47.4633 46.063V44.9321C47.4633 44.2316 46.8934 43.6616 46.1928 43.6616H43.4735V42.0847H46.1928C46.8934 42.0847 47.4633 41.5147 47.4633 40.8143V39.6833C47.4633 38.9829 46.8934 38.4129 46.1928 38.4129H43.4735V36.8359H46.1928C46.8934 36.8359 47.4633 36.266 47.4633 35.5655V34.4346C47.4633 33.7341 46.8934 33.1641 46.1928 33.1641H43.4735V31.5871H46.1929V31.5871ZM43.4736 23.5205H46.1928C46.4225 23.5205 46.6094 23.7073 46.6094 23.937V25.0679C46.6094 25.2976 46.4225 25.4845 46.1928 25.4845H43.4736V23.5205ZM43.4736 28.7693H46.1928C46.4225 28.7693 46.6094 28.9561 46.6094 29.1858V30.3167C46.6094 30.5464 46.4225 30.7333 46.1928 30.7333H43.4736V28.7693ZM26.5264 46.4795H23.8071C23.5774 46.4795 23.3905 46.2927 23.3905 46.063V44.9321C23.3905 44.7024 23.5774 44.5155 23.8071 44.5155H26.5264V46.4795H26.5264ZM26.5264 41.2307H23.8071C23.5774 41.2307 23.3905 41.0439 23.3905 40.8142V39.6833C23.3905 39.4536 23.5774 39.2667 23.8071 39.2667H26.5264V41.2307H26.5264ZM26.5264 35.982H23.8071C23.5774 35.982 23.3905 35.7951 23.3905 35.5654V34.4346C23.3905 34.2049 23.5774 34.018 23.8071 34.018H26.5264V35.982H26.5264ZM26.5264 30.7333H23.8071C23.5774 30.7333 23.3905 30.5464 23.3905 30.3167V29.1858C23.3905 28.9561 23.5774 28.7693 23.8071 28.7693H26.5264V30.7333H26.5264ZM26.5264 25.4845H23.8071C23.5774 25.4845 23.3905 25.2976 23.3905 25.0679V23.9371C23.3905 23.7074 23.5774 23.5205 23.8071 23.5205H26.5264V25.4845H26.5264ZM42.6197 48.3443C42.6197 48.7864 42.26 49.1461 41.8179 49.1461H28.1821C27.74 49.1461 27.3802 48.7864 27.3802 48.3443V46.9064V44.0885V41.6577V38.8398V36.4089V33.5911V31.1602V28.3423V25.9115V23.0936V21.6557C27.3802 21.2136 27.74 20.8539 28.1821 20.8539H41.8179C42.26 20.8539 42.6197 21.2136 42.6197 21.6557V48.3443V48.3443ZM46.1928 44.5155C46.4225 44.5155 46.6094 44.7024 46.6094 44.9321V46.063C46.6094 46.2927 46.4225 46.4795 46.1928 46.4795H43.4735V44.5155H46.1928V44.5155ZM46.1928 39.2667C46.4225 39.2667 46.6094 39.4536 46.6094 39.6833V40.8142C46.6094 41.0439 46.4225 41.2307 46.1928 41.2307H43.4735V39.2667H46.1928V39.2667ZM46.1928 34.018C46.4225 34.018 46.6094 34.2049 46.6094 34.4346V35.5655C46.6094 35.7952 46.4225 35.982 46.1928 35.982H43.4735V34.018H46.1928V34.018Z" fill="black"/>
<path d="M36.8677 37.9393C36.9678 37.9144 37.0381 37.8245 37.0381 37.7213V37.3892C37.0381 37.236 36.8886 37.1277 36.7432 37.1759C36.2875 37.3271 35.7553 37.4986 35.1467 37.6903C35.1061 37.5976 35.0554 37.5172 34.9945 37.449C34.9336 37.3809 34.8717 37.3288 34.8086 37.2925C34.7456 37.2563 34.6731 37.2277 34.5912 37.2066C34.5093 37.1857 34.4365 37.1722 34.3727 37.1664C34.3089 37.1607 34.2365 37.1578 34.1552 37.1578C33.9683 37.1578 33.8078 37.1868 33.6737 37.2447C33.5397 37.3027 33.4332 37.3875 33.3542 37.4991C33.2752 37.6108 33.2172 37.7408 33.1802 37.8894C33.1433 38.038 33.1248 38.2101 33.1248 38.4057V39.042C33.1248 39.1661 33.2254 39.2666 33.3494 39.2666H36.8135C36.9375 39.2666 37.0381 39.1661 37.0381 39.042V38.6998C37.0381 38.5757 36.9376 38.4752 36.8135 38.4752H35.2358V38.3448L36.8677 37.9393ZM34.7531 38.4752H33.7052V38.2121C33.7052 38.157 33.7245 38.1103 33.7628 38.0719C33.8013 38.0335 33.8506 38.006 33.9107 37.9893C33.9709 37.9726 34.0255 37.961 34.0748 37.9545C34.1241 37.948 34.1719 37.9447 34.2183 37.9447C34.2647 37.9447 34.314 37.9487 34.3661 37.9567C34.4183 37.9647 34.4756 37.9784 34.5379 37.998C34.6002 38.0176 34.6517 38.0491 34.6922 38.0926C34.7328 38.1361 34.7531 38.1883 34.7531 38.2491V38.4752V38.4752Z" fill="black"/>
<path d="M36.8892 35.1486C36.9757 35.132 37.0381 35.0563 37.0381 34.9683V34.5668C37.0381 34.4499 36.9302 34.3627 36.8159 34.3874L33.2698 35.1517C33.1852 35.1699 33.1249 35.2447 33.1249 35.3312V35.7349C33.1249 35.8213 33.1852 35.896 33.2697 35.9143L36.8158 36.6807C36.9301 36.7054 37.0381 36.6183 37.0381 36.5013V36.0972C37.0381 36.0084 36.9747 35.9324 36.8874 35.9165L36.2011 35.7918V35.2809L36.8892 35.1486ZM35.7141 35.7374L34.2618 35.5309L35.7141 35.333V35.7374Z" fill="black"/>
<path d="M36.903 33.1899L34.2684 33.1733L36.9254 32.7124C36.9906 32.7011 37.0382 32.6446 37.0382 32.5784V32.218C37.0382 32.1511 36.9896 32.0941 36.9235 32.0837C36.6377 32.0385 36.2172 31.9684 35.662 31.8733C35.0271 31.7646 34.5685 31.6885 34.2858 31.645L36.9029 31.6285C36.9777 31.628 37.0381 31.5672 37.0381 31.4924V31.181C37.0381 31.1058 36.9772 31.0449 36.9021 31.0449H33.2609C33.1857 31.0449 33.1248 31.1059 33.1248 31.181V31.8457C33.1248 31.9119 33.1725 31.9685 33.2377 31.9797L35.7337 32.4103L33.2394 32.8094C33.1734 32.8199 33.1248 32.8768 33.1248 32.9437V33.6395C33.1248 33.7147 33.1858 33.7756 33.2609 33.7756H36.9021C36.9772 33.7756 37.0381 33.7147 37.0382 33.6395V33.3259C37.0382 33.2511 36.9778 33.1903 36.903 33.1899Z" fill="black"/>
</svg>
