<svg width="72" height="70" viewBox="0 0 72 70" fill="none" xmlns="http://www.w3.org/2000/svg">
<ellipse cx="35.6364" cy="35" rx="35.6364" ry="35" fill="#F2F2F2"/>
<g clip-path="url(#clip0)">
<path d="M44.8636 20H32.4545C31.2264 20 30.2273 20.9812 30.2273 22.1875V25H27.6818C25.7511 25 24.1818 26.5412 24.1818 28.4375V46.5625C24.1818 48.4587 25.7511 50 27.6818 50H43.5909C45.5216 50 47.0909 48.4587 47.0909 46.5625V22.1875C47.0909 20.9812 46.0918 20 44.8636 20ZM33.0909 23.75C33.0909 23.06 33.6598 22.5 34.3636 22.5C35.0674 22.5 35.6364 23.06 35.6364 23.75V25.625C35.6364 26.315 35.0674 26.875 34.3636 26.875C33.6598 26.875 33.0909 26.315 33.0909 25.625V23.75ZM39.3769 38.5525L36.8314 45.4275C36.6444 45.935 36.1556 46.25 35.6364 46.25C35.4925 46.25 35.3449 46.225 35.2011 46.1737C34.5405 45.9375 34.1994 45.22 34.44 44.5712L36.3644 39.3737H33.0909C32.676 39.3737 32.2865 39.175 32.0485 38.8412C31.8105 38.5075 31.7533 38.08 31.8958 37.6962L34.4413 30.8212C34.6805 30.1725 35.4111 29.8362 36.0716 30.0737C36.7322 30.31 37.0733 31.0275 36.8327 31.6762L34.9084 36.875H38.1818C38.5967 36.875 38.9862 37.0737 39.2242 37.4075C39.4622 37.7412 39.5207 38.1687 39.3769 38.5525V38.5525ZM40.0909 25.625C40.0909 26.315 39.522 26.875 38.8182 26.875C38.1144 26.875 37.5454 26.315 37.5454 25.625V23.75C37.5454 23.06 38.1144 22.5 38.8182 22.5C39.522 22.5 40.0909 23.06 40.0909 23.75V25.625ZM44.5454 25.625C44.5454 26.315 43.9765 26.875 43.2727 26.875C42.5689 26.875 42 26.315 42 25.625V23.75C42 23.06 42.5689 22.5 43.2727 22.5C43.9765 22.5 44.5454 23.06 44.5454 23.75V25.625Z" fill="black"/>
</g>
<defs>
<clipPath id="clip0">
<rect width="30.5455" height="30" fill="white" transform="translate(20.3636 20)"/>
</clipPath>
</defs>
</svg>
