<svg width="93" height="24" viewBox="0 0 93 24" fill="none" xmlns="http://www.w3.org/2000/svg">
<path d="M4.925 7.61V23H1.22V7.61H4.925ZM5.48 3.125C5.48 3.445 5.415 3.745 5.285 4.025C5.155 4.305 4.98 4.55 4.76 4.76C4.55 4.97 4.3 5.14 4.01 5.27C3.72 5.39 3.41 5.45 3.08 5.45C2.76 5.45 2.455 5.39 2.165 5.27C1.885 5.14 1.64 4.97 1.43 4.76C1.22 4.55 1.05 4.305 0.92 4.025C0.8 3.745 0.74 3.445 0.74 3.125C0.74 2.795 0.8 2.485 0.92 2.195C1.05 1.905 1.22 1.655 1.43 1.445C1.64 1.235 1.885 1.07 2.165 0.95C2.455 0.819999 2.76 0.754999 3.08 0.754999C3.41 0.754999 3.72 0.819999 4.01 0.95C4.3 1.07 4.55 1.235 4.76 1.445C4.98 1.655 5.155 1.905 5.285 2.195C5.415 2.485 5.48 2.795 5.48 3.125ZM13.5045 15.365V23H9.46953V1.31H16.5345C17.9845 1.31 19.2395 1.48 20.2995 1.82C21.3595 2.16 22.2345 2.635 22.9245 3.245C23.6145 3.855 24.1245 4.585 24.4545 5.435C24.7845 6.285 24.9495 7.215 24.9495 8.225C24.9495 9.275 24.7745 10.24 24.4245 11.12C24.0745 11.99 23.5495 12.74 22.8495 13.37C22.1495 14 21.2745 14.49 20.2245 14.84C19.1745 15.19 17.9445 15.365 16.5345 15.365H13.5045ZM13.5045 12.215H16.5345C17.2745 12.215 17.9195 12.125 18.4695 11.945C19.0195 11.755 19.4745 11.49 19.8345 11.15C20.1945 10.8 20.4645 10.38 20.6445 9.89C20.8245 9.39 20.9145 8.835 20.9145 8.225C20.9145 7.645 20.8245 7.12 20.6445 6.65C20.4645 6.18 20.1945 5.78 19.8345 5.45C19.4745 5.12 19.0195 4.87 18.4695 4.7C17.9195 4.52 17.2745 4.43 16.5345 4.43H13.5045V12.215ZM27.8745 23V0.709999H31.5795V9.275C32.1795 8.705 32.8395 8.245 33.5595 7.895C34.2795 7.545 35.1245 7.37 36.0945 7.37C36.9345 7.37 37.6795 7.515 38.3295 7.805C38.9795 8.085 39.5195 8.485 39.9495 9.005C40.3895 9.515 40.7195 10.13 40.9395 10.85C41.1695 11.56 41.2845 12.345 41.2845 13.205V23H37.5795V13.205C37.5795 12.265 37.3595 11.54 36.9195 11.03C36.4895 10.51 35.8395 10.25 34.9695 10.25C34.3295 10.25 33.7295 10.395 33.1695 10.685C32.6095 10.975 32.0795 11.37 31.5795 11.87V23H27.8745ZM51.4953 7.37C52.6453 7.37 53.6853 7.555 54.6153 7.925C55.5553 8.295 56.3553 8.82 57.0153 9.5C57.6753 10.18 58.1853 11.01 58.5453 11.99C58.9053 12.97 59.0853 14.065 59.0853 15.275C59.0853 16.495 58.9053 17.595 58.5453 18.575C58.1853 19.555 57.6753 20.39 57.0153 21.08C56.3553 21.77 55.5553 22.3 54.6153 22.67C53.6853 23.04 52.6453 23.225 51.4953 23.225C50.3453 23.225 49.3003 23.04 48.3603 22.67C47.4203 22.3 46.6153 21.77 45.9453 21.08C45.2853 20.39 44.7703 19.555 44.4003 18.575C44.0403 17.595 43.8603 16.495 43.8603 15.275C43.8603 14.065 44.0403 12.97 44.4003 11.99C44.7703 11.01 45.2853 10.18 45.9453 9.5C46.6153 8.82 47.4203 8.295 48.3603 7.925C49.3003 7.555 50.3453 7.37 51.4953 7.37ZM51.4953 20.375C52.7753 20.375 53.7203 19.945 54.3303 19.085C54.9503 18.225 55.2603 16.965 55.2603 15.305C55.2603 13.645 54.9503 12.38 54.3303 11.51C53.7203 10.64 52.7753 10.205 51.4953 10.205C50.1953 10.205 49.2353 10.645 48.6153 11.525C47.9953 12.395 47.6853 13.655 47.6853 15.305C47.6853 16.955 47.9953 18.215 48.6153 19.085C49.2353 19.945 50.1953 20.375 51.4953 20.375ZM61.9761 23V7.61H64.2411C64.7211 7.61 65.0361 7.835 65.1861 8.285L65.4411 9.5C65.7511 9.18 66.0761 8.89 66.4161 8.63C66.7661 8.37 67.1311 8.145 67.5111 7.955C67.9011 7.765 68.3161 7.62 68.7561 7.52C69.1961 7.42 69.6761 7.37 70.1961 7.37C71.0361 7.37 71.7811 7.515 72.4311 7.805C73.0811 8.085 73.6211 8.485 74.0511 9.005C74.4911 9.515 74.8211 10.13 75.0411 10.85C75.2711 11.56 75.3861 12.345 75.3861 13.205V23H71.6811V13.205C71.6811 12.265 71.4611 11.54 71.0211 11.03C70.5911 10.51 69.9411 10.25 69.0711 10.25C68.4311 10.25 67.8311 10.395 67.2711 10.685C66.7111 10.975 66.1811 11.37 65.6811 11.87V23H61.9761ZM85.3869 7.37C86.3569 7.37 87.2469 7.525 88.0569 7.835C88.8769 8.145 89.5819 8.6 90.1719 9.2C90.7619 9.79 91.2219 10.52 91.5519 11.39C91.8819 12.25 92.0469 13.235 92.0469 14.345C92.0469 14.625 92.0319 14.86 92.0019 15.05C91.9819 15.23 91.9369 15.375 91.8669 15.485C91.8069 15.585 91.7219 15.66 91.6119 15.71C91.5019 15.75 91.3619 15.77 91.1919 15.77H81.6819C81.7919 17.35 82.2169 18.51 82.9569 19.25C83.6969 19.99 84.6769 20.36 85.8969 20.36C86.4969 20.36 87.0119 20.29 87.4419 20.15C87.8819 20.01 88.2619 19.855 88.5819 19.685C88.9119 19.515 89.1969 19.36 89.4369 19.22C89.6869 19.08 89.9269 19.01 90.1569 19.01C90.3069 19.01 90.4369 19.04 90.5469 19.1C90.6569 19.16 90.7519 19.245 90.8319 19.355L91.9119 20.705C91.5019 21.185 91.0419 21.59 90.5319 21.92C90.0219 22.24 89.4869 22.5 88.9269 22.7C88.3769 22.89 87.8119 23.025 87.2319 23.105C86.6619 23.185 86.1069 23.225 85.5669 23.225C84.4969 23.225 83.5019 23.05 82.5819 22.7C81.6619 22.34 80.8619 21.815 80.1819 21.125C79.5019 20.425 78.9669 19.565 78.5769 18.545C78.1869 17.515 77.9919 16.325 77.9919 14.975C77.9919 13.925 78.1619 12.94 78.5019 12.02C78.8419 11.09 79.3269 10.285 79.9569 9.605C80.5969 8.915 81.3719 8.37 82.2819 7.97C83.2019 7.57 84.2369 7.37 85.3869 7.37ZM85.4619 10.025C84.3819 10.025 83.5369 10.33 82.9269 10.94C82.3169 11.55 81.9269 12.415 81.7569 13.535H88.7169C88.7169 13.055 88.6519 12.605 88.5219 12.185C88.3919 11.755 88.1919 11.38 87.9219 11.06C87.6519 10.74 87.3119 10.49 86.9019 10.31C86.4919 10.12 86.0119 10.025 85.4619 10.025Z" fill="#F2F2F2"/>
</svg>
